<svg width="38" height="24" viewBox="0 0 38 24" fill="none" xmlns="http://www.w3.org/2000/svg">
<path d="M1.56398 0.119629C1.19478 0.119629 0.876709 0.437704 0.876709 0.806901V23.1841C0.876709 23.5533 1.19478 23.8713 1.56398 23.8713C13.1625 23.8902 24.7748 23.8713 36.4389 23.8713C36.8081 23.8713 37.1262 23.5533 37.1262 23.1841C37.1262 15.725 37.1262 8.26547 37.1262 0.806901C37.1262 0.369294 36.7254 0.119629 36.4389 0.119629H1.56398ZM2.12675 1.36967H35.8762V3.74641C32.9068 4.84226 28.2638 6.37097 25.251 6.37097C20.4592 6.37097 15.4603 3.87091 10.2519 3.87091C6.38555 3.87091 4.00543 5.22002 2.12675 5.90588V1.36967ZM35.8762 5.11851V22.6213H12.7519V20.1982L13.7212 20.6828C14.1383 20.8914 14.6285 20.5862 14.6258 20.12C14.6255 17.7495 14.6258 15.2771 14.6258 12.9373C14.6258 11.4116 13.8867 10.0551 12.7519 9.1982V5.32238C16.776 5.91332 20.9415 7.6222 25.251 7.6222C28.4994 7.6222 32.8613 6.21747 35.8762 5.11851ZM10.2519 5.12089C10.6668 5.12089 11.0839 5.14521 11.5019 5.17946V8.52426C11.0117 8.34946 10.4871 8.24956 9.93816 8.24956C9.38905 8.24956 8.86359 8.34927 8.37319 8.52426V5.2527C9.03549 5.17687 9.69617 5.12254 10.2519 5.12089ZM7.12805 5.49684V9.19564C5.99114 10.0524 5.2506 11.4097 5.2506 12.9371C5.25769 15.2896 5.2506 17.7405 5.2506 20.1199C5.24824 20.5853 5.73723 20.8898 6.15393 20.6826L7.12805 20.1956V22.6212H2.12675V7.26564C3.6144 6.7853 5.13192 5.97435 7.12805 5.4968V5.49684ZM9.93816 9.49471C11.8441 9.49471 13.3745 11.0313 13.3745 12.9372C13.3745 15.1738 11.8402 16.3736 9.93816 16.3736C8.04321 16.3736 6.53526 14.4807 6.50061 12.9371C6.50061 11.0002 8.44885 9.55253 9.93816 9.49471ZM27.1052 10.1124C26.2711 10.1124 26.2711 11.3636 27.1052 11.3636H33.3847C34.2188 11.3636 34.2188 10.1124 33.3847 10.1124H27.1052ZM19.5624 12.6137C18.7483 12.6739 18.8111 13.8878 19.6271 13.8637H33.4128C34.2276 13.8448 34.2276 12.632 33.4128 12.6137H19.5624ZM24.6186 15.7375C22.4813 15.7375 21.9158 18.104 21.4997 20.0101C21.3613 20.8345 22.5979 21.042 22.7363 20.2177C23.0519 18.9411 23.3452 16.9877 24.6186 16.9877C25.756 16.9877 25.3922 20.739 27.1199 20.739C28.2532 20.739 28.6794 19.7631 29.3111 18.9994C29.4318 18.892 29.4911 18.8652 29.6199 18.8652C30.5495 18.8652 30.8794 20.739 32.1212 20.739C32.9554 20.739 32.9554 19.4878 32.1212 19.4878C31.9922 19.4878 31.9318 19.4621 31.8112 19.3548C31.2032 18.4701 30.6374 17.6153 29.6199 17.6153C28.5084 17.6153 28.0588 18.5865 27.4239 19.3548C27.167 19.6362 27.0735 19.2901 27.0735 19.2901C26.6759 17.9004 26.3101 15.7757 24.6186 15.7378V15.7375ZM6.50061 16.111C6.85941 16.4992 7.28015 16.828 7.75062 17.0778V18.4866L6.50061 19.1103V16.111ZM13.3745 16.1123V19.1104L12.1245 18.4866V17.0778C12.5946 16.8282 13.0159 16.5 13.3745 16.1123ZM9.00066 17.5295C9.30343 17.5914 9.6176 17.6247 9.93816 17.6247C10.2587 17.6247 10.5717 17.5914 10.8745 17.5295V18.8699C10.8732 19.1079 11.007 19.3261 11.2199 19.4326L11.5019 19.573V22.6211H8.37319V19.573L8.65517 19.4326C8.86801 19.3261 9.00206 19.1079 9.00066 18.8699V17.5295Z" fill="#333333"/>
</svg>
