<svg width="160" height="26" viewBox="0 0 160 26" fill="none" xmlns="http://www.w3.org/2000/svg">
<g clip-path="url(#clip0_76_28)">
<path d="M11.6788 24.8245C10.2463 24.8506 8.81947 24.638 7.45807 24.1958C6.27078 23.8141 5.24662 23.0502 4.54861 22.0257C3.77091 20.7734 3.39911 19.3154 3.48317 17.8477V13.6292H0.881046C0.765224 13.6333 0.649937 13.6117 0.543596 13.5661C0.437255 13.5205 0.342543 13.452 0.26637 13.3655C0.179023 13.2901 0.109783 13.1963 0.063702 13.0911C0.017621 12.9858 -0.00413858 12.8717 1.09753e-05 12.7571V8.82244C-0.00413858 8.70779 0.017621 8.59368 0.063702 8.48841C0.109783 8.38315 0.179023 8.2894 0.26637 8.214C0.342543 8.12754 0.437255 8.059 0.543596 8.01338C0.649937 7.96777 0.765224 7.94623 0.881046 7.95034H3.48317V2.65687C3.47754 2.54089 3.4965 2.42502 3.53885 2.31673C3.5812 2.20845 3.64598 2.11014 3.72904 2.02814C3.81261 1.94693 3.91205 1.88345 4.02127 1.8416C4.13048 1.79976 4.24718 1.78041 4.36421 1.78476H10.1012C10.217 1.78066 10.3323 1.8022 10.4386 1.84781C10.545 1.89342 10.6397 1.96196 10.7159 2.04842C10.8032 2.12382 10.8724 2.21758 10.9185 2.32284C10.9646 2.4281 10.9864 2.54222 10.9822 2.65687V7.95034H15.0801C15.1953 7.9502 15.3093 7.97353 15.4151 8.01889C15.5208 8.06425 15.616 8.13066 15.6947 8.214C15.7821 8.2894 15.8513 8.38315 15.8974 8.48841C15.9435 8.59368 15.9652 8.70779 15.9611 8.82244V12.7571C15.9652 12.8717 15.9435 12.9858 15.8974 13.0911C15.8513 13.1963 15.7821 13.2901 15.6947 13.3655C15.616 13.4488 15.5208 13.5152 15.4151 13.5606C15.3093 13.606 15.1953 13.6293 15.0801 13.6292H10.9822V17.1987C10.9595 17.6186 11.0824 18.0336 11.3305 18.375C11.4563 18.5316 11.6197 18.6545 11.8058 18.7325C11.992 18.8104 12.1949 18.8409 12.396 18.8212H15.3669C15.4854 18.8195 15.603 18.842 15.7123 18.8874C15.8216 18.9328 15.9202 19 16.0021 19.0849C16.1683 19.2451 16.264 19.4637 16.2684 19.6933V23.9524C16.2631 24.1856 16.1657 24.4074 15.9972 24.5704C15.8287 24.7334 15.6025 24.8246 15.3669 24.8245H11.6788Z" fill="#1990BA"/>
<path d="M23.9928 25.1491C22.8542 25.1744 21.7251 24.9384 20.694 24.4596C19.7841 24.0636 19.0036 23.4245 18.4402 22.6139C17.9077 21.8443 17.6285 20.9304 17.6412 19.9976C17.613 19.2566 17.7772 18.5208 18.1179 17.8604C18.4587 17.2 18.9646 16.6371 19.5876 16.2253C21.1701 15.2282 22.953 14.5846 24.8124 14.3391L28.2955 13.7915C28.3078 13.3744 28.2595 12.9578 28.1521 12.5543C28.0497 12.2907 27.7628 12.169 27.312 12.169C27.0534 12.1564 26.7967 12.2199 26.5744 12.3515C26.3533 12.5003 26.1475 12.6701 25.9598 12.8585C25.7106 13.0897 25.3791 13.2136 25.0378 13.2033H19.4647C19.2706 13.2086 19.0812 13.1437 18.932 13.0208C18.861 12.9538 18.8072 12.871 18.7751 12.7793C18.743 12.6876 18.7336 12.5896 18.7476 12.4935C18.8087 11.9788 18.9911 11.4855 19.2803 11.0535C19.6776 10.4284 20.1923 9.88455 20.7965 9.45125C21.6 8.85686 22.5011 8.40404 23.4601 8.11267C24.7292 7.73763 26.0493 7.55974 27.3735 7.58535C28.6865 7.56646 29.996 7.72337 31.2665 8.05182C32.2569 8.32142 33.1832 8.78334 33.9915 9.41068C34.7071 10.004 35.2632 10.7635 35.6102 11.6214C35.9932 12.5688 36.1813 13.5824 36.1634 14.6027V23.912C36.1675 24.0266 36.1458 24.1407 36.0997 24.246C36.0536 24.3512 35.9844 24.445 35.897 24.5204C35.8199 24.6058 35.7251 24.6735 35.6189 24.7191C35.5128 24.7646 35.398 24.7868 35.2823 24.7841H29.5454C29.3098 24.7841 29.0835 24.6929 28.915 24.5299C28.7465 24.3669 28.6492 24.1451 28.6438 23.912V22.9993C28.3356 23.4392 27.9463 23.8176 27.4965 24.1148C27.0097 24.4465 26.4692 24.6935 25.8983 24.8449C25.2823 25.0412 24.6399 25.1438 23.9928 25.1491V25.1491ZM26.2671 20.2816C26.6596 20.2933 27.0483 20.2023 27.394 20.0179C27.7194 19.8304 27.9774 19.5467 28.1316 19.2066C28.3161 18.756 28.4067 18.2731 28.398 17.7869V17.7869L26.4515 18.2534C26.0267 18.3193 25.6291 18.502 25.3041 18.7807C25.1298 18.9621 25.0279 19.1999 25.0173 19.45C25.0143 19.6103 25.0647 19.7671 25.1607 19.8962C25.2702 20.0473 25.4188 20.1665 25.591 20.241C25.8111 20.3004 26.0413 20.3142 26.2671 20.2816V20.2816Z" fill="#1990BA"/>
<path d="M39.831 24.8246C39.599 24.8194 39.3779 24.7259 39.2138 24.5634C39.0497 24.401 38.9552 24.1822 38.95 23.9525V8.82249C38.9552 8.59282 39.0497 8.37398 39.2138 8.21154C39.3779 8.04909 39.599 7.95555 39.831 7.95039H45.568C45.8 7.95555 46.0211 8.04909 46.1852 8.21154C46.3493 8.37398 46.4438 8.59282 46.449 8.82249V9.89741C47.0858 9.2121 47.8606 8.66632 48.7233 8.29517C49.7183 7.84069 50.8034 7.61202 51.8991 7.62588C52.9857 7.62336 54.0559 7.8882 55.0135 8.39658C56.0228 8.95269 56.8427 9.7926 57.3697 10.8101C58.0265 12.1034 58.3369 13.542 58.2713 14.9881V23.9525C58.266 24.1822 58.1715 24.401 58.0074 24.5634C57.8433 24.7259 57.6222 24.8194 57.3902 24.8246H51.1C50.9848 24.8247 50.8707 24.8014 50.765 24.756C50.6593 24.7107 50.5641 24.6443 50.4854 24.5609C50.398 24.4855 50.3288 24.3918 50.2827 24.2865C50.2366 24.1813 50.2149 24.0671 50.219 23.9525V15.2112C50.2518 14.7334 50.0977 14.2614 49.7887 13.8929C49.6338 13.7326 49.4453 13.6077 49.2365 13.5271C49.0276 13.4466 48.8035 13.4122 48.5799 13.4264C48.3566 13.4162 48.1337 13.4524 47.9255 13.5327C47.7172 13.6131 47.5284 13.7358 47.371 13.8929C47.062 14.2614 46.9079 14.7334 46.9407 15.2112V23.9525C46.9355 24.1822 46.841 24.401 46.6769 24.5634C46.5128 24.7259 46.2917 24.8194 46.0597 24.8246H39.831Z" fill="#1990BA"/>
<path d="M67.2455 25.1491C66.1557 25.1366 65.0859 24.858 64.1311 24.3378C63.1233 23.7798 62.3039 22.9404 61.7749 21.9243C61.1274 20.6278 60.8175 19.1916 60.8733 17.7463V8.82249C60.8692 8.70784 60.891 8.59372 60.937 8.48846C60.9831 8.3832 61.0524 8.28945 61.1397 8.21405C61.2168 8.12868 61.3117 8.0609 61.4178 8.01538C61.5239 7.96985 61.6388 7.94768 61.7544 7.95039H68.0241C68.2561 7.95555 68.4772 8.04909 68.6413 8.21153C68.8054 8.37398 68.8999 8.59281 68.9051 8.82249V17.5638C68.9051 18.7401 69.4583 19.3486 70.5442 19.3486C70.7611 19.3569 70.9774 19.3196 71.1787 19.2392C71.38 19.1588 71.5618 19.0371 71.7121 18.8821C72.0211 18.5136 72.1752 18.0416 72.1424 17.5638V8.82249C72.1382 8.70784 72.16 8.59372 72.2061 8.48846C72.2522 8.3832 72.3214 8.28945 72.4088 8.21405C72.4858 8.12868 72.5807 8.0609 72.6868 8.01538C72.793 7.96985 72.9078 7.94768 73.0234 7.95039H79.1702C79.4058 7.95033 79.632 8.04156 79.8005 8.20455C79.969 8.36754 80.0664 8.58935 80.0717 8.82249V23.9525C80.0664 24.1856 79.969 24.4074 79.8005 24.5704C79.632 24.7334 79.4058 24.8246 79.1702 24.8246H73.5561C73.4409 24.8247 73.3269 24.8014 73.2211 24.756C73.1154 24.7107 73.0202 24.6443 72.9415 24.5609C72.8541 24.4855 72.7849 24.3918 72.7388 24.2865C72.6927 24.1813 72.671 24.0671 72.6751 23.9525V22.8776C72.1287 23.6799 71.3397 24.2904 70.4213 24.6218C69.4017 24.979 68.327 25.1574 67.2455 25.1491V25.1491Z" fill="#1990BA"/>
<path d="M84.0056 24.8246C83.8871 24.8263 83.7695 24.8038 83.6602 24.7584C83.5509 24.7131 83.4522 24.6458 83.3704 24.561C83.2899 24.4813 83.2266 24.3863 83.1844 24.2817C83.1421 24.1771 83.1217 24.0651 83.1245 23.9525V2.65694C83.1215 2.53946 83.1437 2.42269 83.1896 2.31431C83.2355 2.20594 83.3041 2.10843 83.3909 2.02821C83.472 1.94949 83.5681 1.88745 83.6736 1.84567C83.7791 1.8039 83.892 1.78322 84.0056 1.78484H89.8655C89.984 1.78312 90.1016 1.80565 90.2109 1.85102C90.3202 1.89639 90.4188 1.96362 90.5006 2.04849C90.5811 2.12814 90.6444 2.22314 90.6867 2.32773C90.729 2.43232 90.7493 2.54432 90.7465 2.65694V23.9525C90.7493 24.0651 90.729 24.1771 90.6867 24.2817C90.6444 24.3863 90.5811 24.4813 90.5006 24.561C90.4188 24.6458 90.3202 24.7131 90.2109 24.7584C90.1016 24.8038 89.984 24.8263 89.8655 24.8246H84.0056Z" fill="#1990BA"/>
<path d="M94.6191 24.8246C94.3835 24.8247 94.1572 24.7334 93.9887 24.5704C93.8202 24.4074 93.7229 24.1856 93.7175 23.9525V8.8225C93.7229 8.58936 93.8202 8.36755 93.9887 8.20456C94.1572 8.04157 94.3835 7.95034 94.6191 7.9504H100.397C100.512 7.95026 100.626 7.97359 100.732 8.01895C100.838 8.06431 100.933 8.13072 101.012 8.21406C101.099 8.28946 101.168 8.38321 101.214 8.48847C101.26 8.59374 101.282 8.70785 101.278 8.8225V9.89742C101.903 9.20791 102.672 8.66119 103.532 8.29518C104.528 7.84264 105.612 7.61407 106.708 7.62589C107.795 7.6208 108.865 7.88579 109.822 8.39659C110.825 8.96117 111.643 9.79886 112.178 10.8101C112.826 12.1067 113.136 13.5428 113.08 14.9881V23.9525C113.079 24.0664 113.055 24.1789 113.009 24.2834C112.963 24.3879 112.897 24.4823 112.813 24.5609C112.735 24.6443 112.64 24.7107 112.534 24.756C112.428 24.8014 112.314 24.8247 112.199 24.8246H105.888C105.656 24.8194 105.435 24.7259 105.271 24.5635C105.107 24.401 105.012 24.1822 105.007 23.9525V15.2112C105.017 14.7223 104.833 14.2489 104.495 13.8929C104.337 13.7358 104.149 13.6131 103.94 13.5327C103.732 13.4524 103.509 13.4162 103.286 13.4264C103.062 13.4122 102.838 13.4466 102.629 13.5272C102.421 13.6077 102.232 13.7326 102.077 13.8929C101.768 14.2614 101.614 14.7334 101.647 15.2112V23.9525C101.646 24.0664 101.622 24.1789 101.576 24.2834C101.53 24.3879 101.464 24.4823 101.38 24.5609C101.302 24.6443 101.207 24.7107 101.101 24.756C100.995 24.8014 100.881 24.8247 100.766 24.8246H94.6191Z" fill="#1990BA"/>
<path d="M124.636 25.1491C122.189 25.3028 119.769 24.5832 117.813 23.121C116.901 22.2716 116.198 21.2267 115.757 20.0665C115.317 18.9063 115.151 17.6617 115.272 16.4281V16.2253C115.259 14.5773 115.683 12.9548 116.501 11.5199C117.261 10.2579 118.39 9.25364 119.739 8.63998C121.271 7.96126 122.937 7.62871 124.615 7.66646C126.449 7.59797 128.267 8.01824 129.881 8.88335C131.195 9.63724 132.262 10.7497 132.954 12.0878C133.625 13.4593 133.969 14.9651 133.958 16.4889V17.4624C133.953 17.6978 133.858 17.9223 133.692 18.0912C133.519 18.2495 133.292 18.3366 133.057 18.3345H123.304V18.4562C123.255 18.8197 123.255 19.1879 123.304 19.5514C123.372 19.809 123.515 20.0415 123.714 20.2207C123.936 20.373 124.202 20.4512 124.472 20.4438C124.587 20.4648 124.705 20.4648 124.82 20.4438C124.93 20.3891 125.027 20.3132 125.107 20.2207C125.219 20.1297 125.322 20.0278 125.414 19.9165C125.557 19.7687 125.723 19.6453 125.906 19.5514C126.102 19.5132 126.304 19.5132 126.5 19.5514H132.647C132.841 19.5462 133.03 19.6111 133.18 19.734C133.251 19.8009 133.304 19.8837 133.337 19.9755C133.369 20.0672 133.378 20.1652 133.364 20.2613C133.293 20.7926 133.097 21.2998 132.79 21.7418C132.356 22.3881 131.808 22.9515 131.172 23.4049C130.331 24.0053 129.397 24.4644 128.406 24.7638C127.174 25.072 125.905 25.2018 124.636 25.1491ZM121.788 5.51663C121.715 5.52678 121.642 5.52013 121.572 5.49722C121.503 5.47431 121.44 5.43576 121.388 5.38462C121.337 5.33347 121.298 5.27113 121.275 5.20252C121.251 5.13392 121.245 5.06092 121.255 4.98931C121.254 4.91433 121.268 4.83989 121.296 4.77027C121.324 4.70065 121.366 4.63723 121.419 4.58368L124.697 0.527379C124.866 0.320023 125.075 0.147726 125.312 0.0203416C125.515 -0.0157324 125.723 -0.0157324 125.926 0.0203416H132.073C132.161 0.00998272 132.25 0.0198229 132.333 0.0490948C132.416 0.0783667 132.492 0.126279 132.553 0.189097C132.615 0.251914 132.661 0.327938 132.688 0.411242C132.715 0.494546 132.722 0.582877 132.708 0.669349C132.709 0.741249 132.695 0.812524 132.667 0.878792C132.638 0.94506 132.597 1.00492 132.544 1.0547L127.648 4.96903C127.48 5.12006 127.294 5.24953 127.094 5.35437C126.838 5.47274 126.557 5.52839 126.275 5.51663H121.788ZM123.304 14.1971H125.926C125.936 13.7988 125.88 13.4017 125.763 13.0208C125.697 12.757 125.546 12.5218 125.332 12.3515C125.116 12.2206 124.868 12.1505 124.615 12.1487C124.355 12.1478 124.1 12.218 123.878 12.3515C123.67 12.5273 123.52 12.7603 123.447 13.0208C123.338 13.403 123.289 13.8 123.304 14.1971V14.1971Z" fill="#1990BA"/>
<path d="M145.268 1.44007V24.4798C145.268 24.8241 145.13 25.1543 144.884 25.3977C144.638 25.6411 144.305 25.7779 143.957 25.7779H138.056C137.708 25.7779 137.375 25.6411 137.129 25.3977C136.883 25.1543 136.745 24.8241 136.745 24.4798V1.92683C136.745 1.45348 136.935 0.99952 137.273 0.66481C137.611 0.3301 138.07 0.142059 138.548 0.142059L143.957 0.142059C144.305 0.142059 144.638 0.278812 144.884 0.522237C145.13 0.765662 145.268 1.09582 145.268 1.44007V1.44007Z" fill="#1990BA"/>
<path d="M156.865 17.2597H146.006C145.788 17.2605 145.573 17.2115 145.378 17.1165C145.182 17.0215 145.011 16.8831 144.879 16.7121C144.736 16.5427 144.638 16.3416 144.591 16.126C144.545 15.9105 144.552 15.687 144.613 15.4749L146.272 8.86314C146.354 8.55412 146.537 8.28081 146.793 8.08621C147.049 7.89161 147.363 7.78679 147.686 7.78822H158.545C158.766 7.78884 158.983 7.83836 159.182 7.93312C159.38 8.02789 159.555 8.16549 159.693 8.33582C159.825 8.51042 159.918 8.71159 159.964 8.92527C160.01 9.13896 160.008 9.36002 159.959 9.57299L158.279 16.2253C158.189 16.5268 158.003 16.7911 157.748 16.9778C157.492 17.1646 157.182 17.2635 156.865 17.2597V17.2597ZM147.686 8.84286C147.599 8.8432 147.514 8.87089 147.444 8.92193C147.374 8.97297 147.323 9.04472 147.297 9.1268L145.637 15.7386C145.625 15.7938 145.625 15.851 145.638 15.9061C145.651 15.9612 145.676 16.0128 145.711 16.0574C145.746 16.1019 145.791 16.1382 145.842 16.1637C145.893 16.1892 145.949 16.2033 146.006 16.205H156.865C156.952 16.2047 157.037 16.177 157.107 16.126C157.177 16.0749 157.228 16.0032 157.254 15.9211L158.914 9.30933C158.938 9.2585 158.95 9.20313 158.95 9.14708C158.95 9.09104 158.938 9.03567 158.914 8.98483C158.878 8.93855 158.831 8.9015 158.778 8.8768C158.724 8.8521 158.666 8.84046 158.607 8.84286H147.686Z" fill="#1990BA"/>
<path d="M152.706 15.6777H152.562C152.427 15.6398 152.312 15.5503 152.242 15.4286C152.173 15.307 152.156 15.1631 152.194 15.0287L153.792 9.75547C153.813 9.68851 153.847 9.62634 153.892 9.57262C153.938 9.51889 153.994 9.47468 154.057 9.44258C154.12 9.41048 154.188 9.39112 154.259 9.38564C154.33 9.38017 154.401 9.38868 154.468 9.41069C154.6 9.45274 154.71 9.54406 154.775 9.66524C154.84 9.78642 154.855 9.92792 154.816 10.0597L153.218 15.3329C153.18 15.436 153.11 15.5247 153.018 15.5865C152.926 15.6484 152.817 15.6802 152.706 15.6777V15.6777Z" fill="#1990BA"/>
<path d="M155.369 15.6776H155.226C155.09 15.6398 154.975 15.5502 154.906 15.4286C154.837 15.3069 154.819 15.1631 154.857 15.0286L156.455 9.75541C156.496 9.62094 156.589 9.508 156.714 9.44143C156.839 9.37487 156.985 9.36014 157.121 9.40048C157.257 9.44083 157.371 9.53294 157.438 9.65655C157.506 9.78017 157.521 9.92516 157.48 10.0596L155.882 15.3328C155.843 15.436 155.773 15.5247 155.681 15.5865C155.589 15.6483 155.48 15.6802 155.369 15.6776V15.6776Z" fill="#1990BA"/>
<path d="M150.042 15.6777H149.899C149.83 15.6602 149.765 15.6279 149.71 15.5831C149.654 15.5384 149.609 15.4821 149.578 15.4184C149.547 15.3547 149.53 15.285 149.529 15.2142C149.528 15.1434 149.542 15.0731 149.571 15.0084L151.149 9.73523C151.196 9.60308 151.292 9.4937 151.418 9.42957C151.543 9.36544 151.689 9.35144 151.825 9.39044C151.892 9.4089 151.954 9.44063 152.008 9.4837C152.062 9.52677 152.107 9.58028 152.14 9.64098C152.172 9.70168 152.192 9.76831 152.198 9.83681C152.204 9.90531 152.195 9.97425 152.173 10.0395L150.575 15.3126C150.542 15.4249 150.472 15.5226 150.374 15.5891C150.277 15.6557 150.16 15.687 150.042 15.6777V15.6777Z" fill="#1990BA"/>
<path d="M147.399 15.6777H147.235C147.168 15.6592 147.106 15.6275 147.052 15.5844C146.998 15.5413 146.953 15.4878 146.92 15.4271C146.888 15.3664 146.868 15.2998 146.862 15.2313C146.857 15.1628 146.865 15.0939 146.887 15.0287L148.485 9.75546C148.528 9.62485 148.62 9.51577 148.742 9.45139C148.865 9.38701 149.008 9.37241 149.141 9.41068C149.225 9.41547 149.307 9.44087 149.379 9.48462C149.451 9.52837 149.511 9.5891 149.554 9.66141C149.597 9.73371 149.62 9.81533 149.623 9.89898C149.626 9.98263 149.608 10.0657 149.571 10.1408L147.973 15.414C147.921 15.5152 147.836 15.5961 147.732 15.644C147.628 15.6918 147.511 15.7036 147.399 15.6777V15.6777Z" fill="#1990BA"/>
<path d="M158.545 25.6966H147.686C147.361 25.6969 147.045 25.5892 146.788 25.3907C146.532 25.1921 146.35 24.9142 146.272 24.6014L144.613 18.01C144.564 17.7997 144.563 17.5815 144.61 17.3709C144.657 17.1603 144.75 16.9625 144.884 16.7919C145.017 16.6213 145.187 16.4819 145.381 16.384C145.575 16.286 145.788 16.2318 146.006 16.2252H156.865C157.19 16.2284 157.504 16.3374 157.76 16.5354C158.015 16.7334 158.198 17.0093 158.279 17.3204L159.959 23.9322C160.007 24.1452 160.008 24.366 159.962 24.5795C159.916 24.7929 159.824 24.9941 159.693 25.1693C159.553 25.3359 159.378 25.4697 159.179 25.5609C158.981 25.6521 158.764 25.6985 158.545 25.6966V25.6966ZM146.006 17.2595C145.948 17.259 145.891 17.2738 145.84 17.3023C145.79 17.3308 145.748 17.372 145.719 17.4218C145.688 17.4704 145.672 17.5266 145.672 17.584C145.672 17.6415 145.688 17.6977 145.719 17.7463L147.297 24.3378C147.323 24.4199 147.375 24.4916 147.445 24.5427C147.515 24.5937 147.599 24.6214 147.686 24.6217H158.545C158.606 24.6252 158.667 24.6138 158.722 24.5884C158.777 24.563 158.825 24.5245 158.862 24.4763C158.898 24.4281 158.922 24.3717 158.931 24.3122C158.94 24.2526 158.935 24.1917 158.914 24.135L157.255 17.5435C157.236 17.4559 157.186 17.3776 157.115 17.3221C157.044 17.2665 156.956 17.2373 156.865 17.2393L146.006 17.2595Z" fill="#1990BA"/>
<path d="M154.304 24.1148C154.188 24.1146 154.075 24.0768 153.983 24.0073C153.89 23.9377 153.823 23.8401 153.792 23.7294L152.194 18.4765C152.155 18.3394 152.172 18.1928 152.241 18.0679C152.31 17.943 152.425 17.8495 152.563 17.8072C152.698 17.7698 152.844 17.7872 152.967 17.8556C153.089 17.924 153.18 18.0379 153.218 18.1723L154.816 23.4455C154.855 23.5772 154.84 23.7187 154.775 23.8399C154.71 23.9611 154.6 24.0524 154.468 24.0945L154.304 24.1148Z" fill="#1990BA"/>
<path d="M156.968 24.1148C156.852 24.1146 156.739 24.0768 156.646 24.0073C156.554 23.9377 156.487 23.8401 156.455 23.7294L154.857 18.4765C154.819 18.3394 154.836 18.1928 154.905 18.0679C154.974 17.943 155.089 17.8495 155.226 17.8072C155.362 17.7698 155.507 17.7872 155.63 17.8556C155.753 17.924 155.844 18.0379 155.882 18.1723L157.48 23.4252C157.518 23.5623 157.501 23.7089 157.433 23.8338C157.364 23.9587 157.248 24.0522 157.111 24.0945L156.968 24.1148Z" fill="#1990BA"/>
<path d="M151.62 24.1147C151.504 24.1145 151.391 24.0768 151.298 24.0072C151.206 23.9377 151.139 23.8401 151.108 23.7294L149.571 18.4765C149.526 18.4051 149.5 18.3243 149.493 18.2408C149.487 18.1573 149.5 18.0734 149.533 17.9961C149.566 17.9188 149.617 17.8504 149.681 17.7964C149.746 17.7424 149.823 17.7045 149.905 17.6858C149.988 17.6671 150.074 17.6681 150.156 17.6888C150.238 17.7094 150.314 17.7491 150.377 17.8046C150.441 17.8601 150.49 17.9297 150.521 18.0078C150.551 18.0858 150.563 18.17 150.554 18.2534L152.153 23.5265C152.191 23.6583 152.176 23.7998 152.111 23.921C152.046 24.0422 151.936 24.1335 151.804 24.1756L151.62 24.1147Z" fill="#1990BA"/>
<path d="M148.977 24.1148C148.862 24.1172 148.75 24.0801 148.661 24.0098C148.571 23.9394 148.509 23.8403 148.485 23.7294L146.887 18.4765C146.865 18.4099 146.856 18.3397 146.861 18.2698C146.867 18.1999 146.887 18.1318 146.919 18.0695C146.951 18.0072 146.996 17.9519 147.05 17.9068C147.105 17.8618 147.167 17.8279 147.235 17.8072C147.371 17.7698 147.516 17.7872 147.639 17.8556C147.762 17.924 147.853 18.0379 147.891 18.1723L149.571 23.4252C149.596 23.4916 149.607 23.5625 149.603 23.6333C149.599 23.7042 149.58 23.7734 149.547 23.8365C149.514 23.8996 149.468 23.9551 149.412 23.9996C149.357 24.044 149.292 24.0763 149.223 24.0945L148.977 24.1148Z" fill="#1990BA"/>
</g>
<defs>
<clipPath id="clip0_76_28">
<rect width="160" height="25.7778" fill="white"/>
</clipPath>
</defs>
</svg>
