<svg width="26" height="37" viewBox="0 0 26 37" fill="none" xmlns="http://www.w3.org/2000/svg">
<path d="M13 0.5C12.2853 0.5 11.57 0.743855 10.9907 1.22998C10.0902 1.98561 9.8979 3.14675 10.1289 4.25H7.375C7.20924 4.25002 7.05028 4.31587 6.93308 4.43308C6.81587 4.55028 6.75002 4.70924 6.75 4.875V5.5H3C1.62581 5.5 0.5 6.62575 0.5 8V34.25C0.5 35.6242 1.62581 36.75 3 36.75H23C24.3742 36.75 25.5 35.6242 25.5 34.25V8C25.5 6.62575 24.3742 5.5 23 5.5H19.25V4.875C19.25 4.70924 19.1841 4.55028 19.0669 4.43308C18.9497 4.31587 18.7908 4.25002 18.625 4.25H15.8711C16.1021 3.14675 15.9098 1.98561 15.0093 1.22998C14.43 0.743855 13.7147 0.5 13 0.5ZM13 1.74756C13.4275 1.74756 13.8559 1.89326 14.2061 2.18701C14.9063 2.77464 15.0806 3.77087 14.6235 4.5625C14.5687 4.65757 14.5398 4.76541 14.5398 4.87517C14.5399 4.98494 14.5688 5.09276 14.6238 5.18778C14.6787 5.28281 14.7577 5.3617 14.8528 5.4165C14.9479 5.47131 15.0558 5.50011 15.1655 5.5H15.8125H18V6.02246C17.9887 6.09035 17.9887 6.15965 18 6.22754V8.52246C17.9887 8.59035 17.9887 8.65965 18 8.72754V9.25H8V8.72266C8.01076 8.65636 8.01076 8.58876 8 8.52246V6.22266C8.01076 6.15636 8.01076 6.08876 8 6.02246V5.5H10.1875H10.8345C10.9442 5.50011 11.0521 5.47131 11.1472 5.4165C11.2423 5.3617 11.3213 5.28281 11.3762 5.18778C11.4312 5.09276 11.4601 4.98494 11.4602 4.87517C11.4602 4.76541 11.4313 4.65757 11.3765 4.5625C10.9194 3.77087 11.0937 2.77464 11.7939 2.18701C12.1441 1.89326 12.5725 1.74756 13 1.74756ZM13 2.99756C12.8342 2.99756 12.6753 3.06341 12.5581 3.18061C12.4409 3.29782 12.375 3.45679 12.375 3.62256C12.375 3.78832 12.4409 3.94729 12.5581 4.0645C12.6753 4.18171 12.8342 4.24756 13 4.24756C13.1658 4.24756 13.3247 4.18171 13.4419 4.0645C13.5591 3.94729 13.625 3.78832 13.625 3.62256C13.625 3.45679 13.5591 3.29782 13.4419 3.18061C13.3247 3.06341 13.1658 2.99756 13 2.99756ZM3 6.75H6.75V8H4.875C3.84705 8 3 8.84713 3 9.875V32.375C3 33.403 3.84705 34.25 4.875 34.25H21.125C22.1529 34.25 23 33.403 23 32.375V9.875C23 8.84713 22.1529 8 21.125 8H19.25V6.75H23C23.7033 6.75 24.25 7.2965 24.25 8V34.25C24.25 34.9535 23.7033 35.5 23 35.5H3C2.29669 35.5 1.75 34.9535 1.75 34.25V8C1.75 7.2965 2.29669 6.75 3 6.75ZM4.875 9.25H6.75V9.875C6.75002 10.0408 6.81587 10.1997 6.93308 10.3169C7.05028 10.4341 7.20924 10.5 7.375 10.5H18.625C18.7908 10.5 18.9497 10.4341 19.0669 10.3169C19.1841 10.1997 19.25 10.0408 19.25 9.875V9.25H21.125C21.4821 9.25 21.75 9.518 21.75 9.875V32.375C21.75 32.7321 21.4821 33 21.125 33H4.875C4.51792 33 4.25 32.7321 4.25 32.375V9.875C4.25 9.518 4.51792 9.25 4.875 9.25ZM6.07129 13C5.90553 13.0084 5.7499 13.0823 5.63864 13.2055C5.52738 13.3287 5.46961 13.491 5.47803 13.6567C5.48644 13.8225 5.56037 13.9781 5.68353 14.0894C5.80669 14.2006 5.969 14.2584 6.13476 14.25H7.36524C7.44806 14.2512 7.53028 14.2359 7.60714 14.205C7.68399 14.1741 7.75394 14.1283 7.81292 14.0701C7.8719 14.0119 7.91874 13.9427 7.95071 13.8662C7.98267 13.7898 7.99914 13.7078 7.99914 13.625C7.99914 13.5422 7.98267 13.4602 7.95071 13.3838C7.91874 13.3073 7.8719 13.2381 7.81292 13.1799C7.75394 13.1217 7.68399 13.0759 7.60714 13.045C7.53028 13.0141 7.44806 12.9988 7.36524 13H6.13476C6.11362 12.9989 6.09243 12.9989 6.07129 13ZM9.81885 13C9.65309 13.0084 9.49746 13.0823 9.3862 13.2055C9.27494 13.3287 9.21717 13.491 9.22559 13.6567C9.234 13.8225 9.30792 13.9781 9.43109 14.0894C9.55425 14.2006 9.71656 14.2584 9.88232 14.25H16.1152C16.1981 14.2512 16.2803 14.2359 16.3571 14.205C16.434 14.1741 16.5039 14.1283 16.5629 14.0701C16.6219 14.0119 16.6687 13.9427 16.7007 13.8662C16.7327 13.7898 16.7491 13.7078 16.7491 13.625C16.7491 13.5422 16.7327 13.4602 16.7007 13.3838C16.6687 13.3073 16.6219 13.2381 16.5629 13.1799C16.5039 13.1217 16.434 13.0759 16.3571 13.045C16.2803 13.0141 16.1981 12.9988 16.1152 13H9.88232C9.86118 12.9989 9.83999 12.9989 9.81885 13ZM6.07129 16.75C5.90553 16.7584 5.7499 16.8323 5.63864 16.9555C5.52738 17.0787 5.46961 17.241 5.47803 17.4067C5.48644 17.5725 5.56037 17.7281 5.68353 17.8394C5.80669 17.9506 5.969 18.0084 6.13476 18H7.36524C7.44806 18.0012 7.53028 17.9859 7.60714 17.955C7.68399 17.9241 7.75394 17.8783 7.81292 17.8201C7.8719 17.7619 7.91874 17.6927 7.95071 17.6162C7.98267 17.5398 7.99914 17.4578 7.99914 17.375C7.99914 17.2922 7.98267 17.2102 7.95071 17.1338C7.91874 17.0573 7.8719 16.9881 7.81292 16.9299C7.75394 16.8717 7.68399 16.8259 7.60714 16.795C7.53028 16.7641 7.44806 16.7488 7.36524 16.75H6.13476C6.11362 16.7489 6.09243 16.7489 6.07129 16.75ZM9.81885 16.75C9.65309 16.7584 9.49746 16.8323 9.3862 16.9555C9.27494 17.0787 9.21717 17.241 9.22559 17.4067C9.234 17.5725 9.30792 17.7281 9.43109 17.8394C9.55425 17.9506 9.71656 18.0084 9.88232 18H16.1152C16.1981 18.0012 16.2803 17.9859 16.3571 17.955C16.434 17.9241 16.5039 17.8783 16.5629 17.8201C16.6219 17.7619 16.6687 17.6927 16.7007 17.6162C16.7327 17.5398 16.7491 17.4578 16.7491 17.375C16.7491 17.2922 16.7327 17.2102 16.7007 17.1338C16.6687 17.0573 16.6219 16.9881 16.5629 16.9299C16.5039 16.8717 16.434 16.8259 16.3571 16.795C16.2803 16.7641 16.1981 16.7488 16.1152 16.75H9.88232C9.86118 16.7489 9.83999 16.7489 9.81885 16.75ZM6.07129 20.5C5.90553 20.5084 5.7499 20.5823 5.63864 20.7055C5.52738 20.8287 5.46961 20.991 5.47803 21.1567C5.48644 21.3225 5.56037 21.4781 5.68353 21.5894C5.80669 21.7006 5.969 21.7584 6.13476 21.75H7.36524C7.44806 21.7512 7.53028 21.7359 7.60714 21.705C7.68399 21.6741 7.75394 21.6283 7.81292 21.5701C7.8719 21.5119 7.91874 21.4427 7.95071 21.3662C7.98267 21.2898 7.99914 21.2078 7.99914 21.125C7.99914 21.0422 7.98267 20.9602 7.95071 20.8838C7.91874 20.8073 7.8719 20.7381 7.81292 20.6799C7.75394 20.6217 7.68399 20.5759 7.60714 20.545C7.53028 20.5141 7.44806 20.4988 7.36524 20.5H6.13476C6.11362 20.4989 6.09243 20.4989 6.07129 20.5ZM9.81885 20.5C9.65309 20.5084 9.49746 20.5823 9.3862 20.7055C9.27494 20.8287 9.21717 20.991 9.22559 21.1567C9.234 21.3225 9.30792 21.4781 9.43109 21.5894C9.55425 21.7006 9.71656 21.7584 9.88232 21.75H16.1152C16.1981 21.7512 16.2803 21.7359 16.3571 21.705C16.434 21.6741 16.5039 21.6283 16.5629 21.5701C16.6219 21.5119 16.6687 21.4427 16.7007 21.3662C16.7327 21.2898 16.7491 21.2078 16.7491 21.125C16.7491 21.0422 16.7327 20.9602 16.7007 20.8838C16.6687 20.8073 16.6219 20.7381 16.5629 20.6799C16.5039 20.6217 16.434 20.5759 16.3571 20.545C16.2803 20.5141 16.1981 20.4988 16.1152 20.5H9.88232C9.86118 20.4989 9.83999 20.4989 9.81885 20.5ZM13.625 26.75C13.2569 26.7506 12.992 26.9203 12.7876 27.0869C12.5832 27.2534 12.4218 27.4431 12.2847 27.624C12.0103 27.986 11.8306 28.3369 11.8306 28.3369C11.7544 28.4838 11.7396 28.655 11.7894 28.8128C11.8392 28.9706 11.9496 29.1022 12.0963 29.1788C12.243 29.2554 12.4141 29.2707 12.572 29.2213C12.73 29.172 12.862 29.062 12.939 28.9155C12.939 28.9155 13.084 28.6412 13.2832 28.3784C13.3769 28.2547 13.4799 28.1456 13.5615 28.0757C13.5976 28.1357 13.6277 28.182 13.6812 28.2856C13.7627 28.4441 13.8549 28.6387 14.0254 28.8374C14.1958 29.0363 14.5102 29.25 14.875 29.25C15.2396 29.25 15.5542 29.0363 15.7246 28.8374C15.895 28.6387 15.9874 28.444 16.0688 28.2856C16.0937 28.2369 16.1028 28.228 16.125 28.188C16.1472 28.228 16.1563 28.2369 16.1812 28.2856C16.2626 28.444 16.355 28.6387 16.5254 28.8374C16.6958 29.0363 17.0104 29.25 17.375 29.25C17.7394 29.25 18.0542 29.0363 18.2246 28.8374C18.395 28.6387 18.4875 28.444 18.5688 28.2856C18.6232 28.1794 18.6547 28.1327 18.6909 28.0732C18.7749 28.1432 18.8842 28.2547 18.9814 28.3809C19.1847 28.6446 19.333 28.9204 19.333 28.9204C19.369 28.9972 19.4203 29.0659 19.4837 29.1222C19.5471 29.1786 19.6214 29.2214 19.7019 29.2482C19.7824 29.2749 19.8675 29.285 19.952 29.2778C20.0365 29.2706 20.1187 29.2463 20.1935 29.2063C20.2683 29.1663 20.3342 29.1115 20.3872 29.0452C20.4402 28.979 20.4791 28.9026 20.5016 28.8208C20.5241 28.739 20.5297 28.6535 20.5181 28.5695C20.5065 28.4855 20.4779 28.4047 20.4341 28.332C20.4341 28.332 20.2489 27.9808 19.9702 27.6191C19.8309 27.4384 19.6685 27.2502 19.4624 27.0845C19.2563 26.9188 18.9936 26.7494 18.625 26.75C18.257 26.7506 17.9469 26.9773 17.7852 27.1748C17.6234 27.3722 17.5372 27.5602 17.458 27.7144C17.4218 27.7844 17.4047 27.8043 17.375 27.856C17.3452 27.8047 17.3283 27.7847 17.292 27.7144C17.2127 27.5602 17.1265 27.3722 16.9648 27.1748C16.8032 26.9773 16.4933 26.75 16.125 26.75C15.7567 26.75 15.4468 26.9773 15.2852 27.1748C15.1235 27.3722 15.0373 27.5602 14.958 27.7144C14.9217 27.7844 14.9048 27.8043 14.875 27.856C14.8452 27.8047 14.8283 27.7847 14.792 27.7144C14.7127 27.5601 14.6265 27.3722 14.4648 27.1748C14.3032 26.9774 13.9936 26.7494 13.625 26.75ZM12.3213 30.5C12.1555 30.5084 11.9999 30.5823 11.8886 30.7055C11.7774 30.8287 11.7196 30.991 11.728 31.1567C11.7364 31.3225 11.8104 31.4781 11.9335 31.5894C12.0567 31.7006 12.219 31.7584 12.3848 31.75H19.8848C19.9676 31.7512 20.0498 31.7359 20.1267 31.705C20.2035 31.6741 20.2735 31.6283 20.3325 31.5701C20.3914 31.5119 20.4383 31.4427 20.4702 31.3662C20.5022 31.2898 20.5187 31.2078 20.5187 31.125C20.5187 31.0422 20.5022 30.9602 20.4702 30.8838C20.4383 30.8073 20.3914 30.7381 20.3325 30.6799C20.2735 30.6217 20.2035 30.5759 20.1267 30.545C20.0498 30.5141 19.9676 30.4988 19.8848 30.5H12.3848C12.3636 30.4989 12.3424 30.4989 12.3213 30.5Z" fill="#333333"/>
</svg>
