<svg width="44" height="44" viewBox="0 0 44 44" fill="none" xmlns="http://www.w3.org/2000/svg">
<path d="M43 0.53125H0.99999C0.87567 0.53125 0.756442 0.580636 0.668534 0.668544C0.580626 0.756451 0.53124 0.87568 0.53124 1V34.75C0.531449 34.8474 0.562117 34.9424 0.618951 35.0215C0.675786 35.1007 0.755944 35.1601 0.848209 35.1914C0.402897 38.3456 0.466853 41.8368 0.531925 43.0257C0.538503 43.1454 0.590685 43.258 0.677743 43.3404C0.764801 43.4228 0.88012 43.4688 0.99999 43.4688H19C19.1243 43.4688 19.2435 43.4194 19.3314 43.3315C19.4194 43.2435 19.4687 43.1243 19.4687 43V38.442C19.9345 38.8217 20.5751 39.3436 21.2825 39.9188C21.74 40.2938 22.3117 40.5014 22.9032 40.5075C23.4947 40.5136 24.0706 40.3178 24.5357 39.9523L29.0497 36.4318C29.2322 36.2895 29.3766 36.1043 29.47 35.8926C29.5635 35.681 29.6031 35.4494 29.5853 35.2188H34.7188C35.3203 35.2188 35.3203 34.2812 34.7188 34.2812H29.2854C29.6452 34.0015 29.7326 33.9836 29.903 33.9339C30.377 33.7958 32.7841 32.6299 32.8355 30.9068C32.8608 30.0579 32.3977 29.1305 31.4577 28.1458C33.959 25.5654 32.1487 24.3716 31.3537 24.8936C30.9738 25.1431 28.8882 26.6946 27.8748 27.5722C26.9212 28.398 26.3618 30.126 26.1085 31.107C25.8602 30.9773 25.5788 30.9251 25.3005 30.9572C25.0223 30.9892 24.7601 31.104 24.5478 31.2867L22.37 33.1494C21.7867 32.0284 20.3485 29.5084 18.7398 28.5078C17.8926 27.9808 16.4852 27.6851 15.3805 27.5252C15.2112 27.1828 14.9452 26.8976 14.6155 26.7049C16.3145 25.8483 17.4005 24.1464 17.7588 21.9803C19.7311 21.6196 19.9677 19.0502 18.6134 18.0245C19.8889 14.0881 17.9755 11.4642 15.7043 10.3064C12.6445 8.74687 8.53644 9.42046 6.33925 12.4495C3.56584 12.5425 3.08665 15.8503 4.43217 18.1446C3.1959 19.263 3.60471 21.6286 5.46286 21.979C5.81321 24.0993 6.87193 25.8231 8.59007 26.6969C8.25413 26.8897 7.98311 27.178 7.81151 27.5253C6.2824 27.7439 4.99901 28.0891 3.9955 28.5527C2.90087 29.0585 2.05633 30.2948 1.46874 32.2423V1.46875H42.5312V34.2812H39.3711C38.7696 34.2812 38.7696 35.2188 39.3711 35.2188H43C43.1243 35.2188 43.2435 35.1694 43.3314 35.0815C43.4193 34.9935 43.4687 34.8743 43.4687 34.75V1C43.4687 0.87568 43.4193 0.756451 43.3314 0.668544C43.2435 0.580636 43.1243 0.53125 43 0.53125ZM28.4886 28.2809C29.4151 27.4785 31.2529 26.1037 31.7811 25.7366C31.9536 26.1586 31.1831 27.1309 30.4703 27.8025C30.424 27.8463 30.387 27.899 30.3617 27.9575C30.3364 28.0159 30.3233 28.079 30.3231 28.1427C30.323 28.2064 30.3358 28.2695 30.3609 28.3281C30.3859 28.3867 30.4226 28.4395 30.4688 28.4835C31.4237 29.3913 31.9181 30.2196 31.8985 30.8789C31.8669 31.9366 30.0052 32.9277 29.6407 33.0339C29.3386 33.1219 29.1185 33.2032 28.5649 33.6571L26.8976 31.8401C27.0797 30.9715 27.6337 29.0213 28.4886 28.2809ZM9.59711 27.0899C11.3486 27.5909 13.0025 27.2647 13.595 27.0984V27.6566C13.595 30.3202 9.59711 30.3166 9.59711 27.6566V27.0899ZM10.9107 31.472C10.97 31.5536 11.0433 31.6241 11.1273 31.6801V32.4763C10.8226 32.4122 10.5352 32.2838 10.2841 32.0999L10.9107 31.472ZM12.0648 31.6801C12.1487 31.6241 12.2221 31.5536 12.2814 31.4719L12.9081 32.0998C12.6569 32.2838 12.3694 32.4122 12.0648 32.4763V31.6801ZM12.5643 30.4283C13.0996 30.2403 13.5691 29.9017 13.9164 29.4531C14.2636 29.0046 14.4738 28.4652 14.5217 27.8999C14.8293 28.4673 14.551 29.986 13.5436 31.4094L12.5643 30.4283ZM6.56356 13.3873C6.64367 13.3908 6.72334 13.3737 6.79488 13.3374C6.86642 13.3012 6.92743 13.2472 6.97202 13.1805C8.93816 10.2561 12.7395 9.84736 15.2786 11.1417C17.7246 12.3885 18.6297 14.7962 17.7517 17.6368C17.5018 16.609 16.4923 14.7142 14.0787 14.7142H9.14328C6.71792 14.7142 5.71006 16.6279 5.4663 17.6521C5.39497 17.6641 5.32583 17.6793 5.25872 17.6973C4.2155 15.9487 4.39884 13.2992 6.56356 13.3874V13.3873ZM6.34035 21.4957C6.32646 21.382 6.27147 21.2774 6.18577 21.2016C6.10006 21.1257 5.98955 21.0838 5.87508 21.0838H5.87357C4.2367 21.0213 4.26728 18.5566 5.8737 18.5566C5.99803 18.5566 6.11725 18.5072 6.20516 18.4193C6.29307 18.3314 6.34245 18.2122 6.34245 18.0879C6.34245 17.7842 6.89873 15.6517 9.14328 15.6517H14.0787C16.2881 15.6517 16.8795 17.7986 16.8795 18.0879C16.8795 18.2122 16.9289 18.3314 17.0168 18.4193C17.1047 18.5072 17.2239 18.5566 17.3482 18.5566C18.8494 18.5566 19.0073 21.0211 17.3483 21.0838H17.3469C17.2325 21.0838 17.1219 21.1257 17.0362 21.2016C16.9505 21.2774 16.8955 21.382 16.8816 21.4957C16.6569 23.334 15.6733 26.4179 11.611 26.4179C7.54876 26.4179 6.56511 23.3341 6.34035 21.4957V21.4957ZM8.67048 27.8998C8.71829 28.4651 8.92847 29.0045 9.27574 29.4531C9.62301 29.9017 10.0925 30.2403 10.6278 30.4282L9.64857 31.4094C8.64102 29.986 8.36279 28.4671 8.67048 27.8999V27.8998ZM4.38877 29.4038C5.22609 29.017 6.33448 28.7084 7.61742 28.5028C7.62009 28.624 8.20098 33.4624 11.5961 33.4624C14.9973 33.4624 15.5723 28.6092 15.5747 28.5035C16.7875 28.7007 17.7245 28.9803 18.2447 29.3039C20.062 30.4343 21.7773 34.0581 21.7945 34.0946C21.8251 34.1599 21.8705 34.2173 21.927 34.2622C21.9835 34.3072 22.0495 34.3384 22.1201 34.3537C22.1906 34.3689 22.2638 34.3676 22.3337 34.3499C22.4037 34.3323 22.4687 34.2987 22.5235 34.2518L25.1572 31.9993C25.2494 31.9199 25.3688 31.8795 25.4902 31.8869C25.6116 31.8942 25.7254 31.9486 25.8073 32.0385L28.5303 35.006C28.574 35.0537 28.6073 35.1099 28.6282 35.1712C28.6491 35.2324 28.6572 35.2973 28.6518 35.3617C28.6464 35.4262 28.6278 35.4889 28.5971 35.5458C28.5664 35.6027 28.5242 35.6527 28.4732 35.6925L23.9592 39.213C23.661 39.4473 23.2919 39.5728 22.9128 39.5688C22.5336 39.5649 22.1672 39.4318 21.874 39.1914C20.4496 38.0334 19.2967 37.0916 19.2965 37.0915C19.2278 37.0355 19.1446 37.0001 19.0566 36.9895C18.9686 36.9789 18.8794 36.9934 18.7993 37.0314C18.7192 37.0694 18.6515 37.1293 18.6041 37.2042C18.5566 37.279 18.5314 37.3658 18.5312 37.4545V42.5312H6.33129V38.0458C6.33129 37.426 5.39379 37.4251 5.39379 38.0458V42.5312H1.44732C1.3055 38.9297 1.57943 30.7018 4.38877 29.4038Z" fill="#333333"/>
</svg>
