<svg width="42" height="46" viewBox="0 0 42 46" fill="none" xmlns="http://www.w3.org/2000/svg">
<path d="M41.475 8.45005L21.225 0.950049C21.075 0.875049 20.85 0.875049 20.7 0.950049L0.45 8.45005C0.225 8.52505 0 8.82505 0 9.12505C0 9.42505 0.225 9.72505 0.525 9.80005L7.5 12.425V16.625C7.5 16.775 7.5 16.85 7.575 17C7.65 17.075 8.025 17.825 9 18.725C9 18.8 8.925 18.875 8.925 18.9501V19.025C6.825 19.4 5.175 21.2 5.175 23.45C5.175 25.7 6.825 27.5 8.925 27.875V27.95C8.925 28.025 8.925 28.025 8.925 28.1C8.925 28.175 9.525 31.925 12.3 34.925C8.325 36.875 5.1 40.175 3.225 44.225C3.15 44.45 3.15 44.75 3.3 44.975C3.45 45.2 3.675 45.35 3.9 45.35H22.425H37.95C38.175 45.35 38.475 45.2 38.55 44.975C38.625 44.75 38.7 44.525 38.625 44.225C36.75 40.175 33.525 36.9501 29.55 34.925C32.25 31.925 32.925 28.175 32.925 28.1C32.925 28.025 32.925 28.025 32.925 27.95V27.875C35.025 27.5 36.675 25.7 36.675 23.45C36.675 21.2 35.025 19.4 32.925 19.025V18.9501C32.925 18.875 32.925 18.8 32.85 18.725C33.825 17.825 34.275 17.15 34.275 17C34.35 16.85 34.35 16.775 34.35 16.625V12.425L37.35 11.3V17.525C36.45 17.8251 35.85 18.65 35.85 19.625C35.85 20.9 36.825 21.875 38.1 21.875C39.375 21.875 40.35 20.9 40.35 19.625C40.35 18.65 39.75 17.8251 38.85 17.525V10.775L41.325 9.87505C41.625 9.80005 41.85 9.50005 41.85 9.20005C41.85 8.90005 41.775 8.52505 41.475 8.45005ZM38.25 20.375C37.8 20.375 37.5 20.075 37.5 19.625C37.5 19.175 37.8 18.875 38.25 18.875C38.7 18.875 39 19.175 39 19.625C39 20.075 38.7 20.375 38.25 20.375ZM10.5 19.85C11.4 20.45 12.45 21.05 13.8 21.5C13.275 22.175 12.15 23.0751 10.5 23.3001V19.85ZM6.75 23.375C6.75 21.95 7.725 20.8251 9 20.4501V26.225C7.725 25.925 6.75 24.8 6.75 23.375ZM13.5 35.9C14.7 36.875 16.2 37.7 18.075 38.075L21.15 43.625H5.1C7.05 40.175 9.975 37.475 13.5 35.9ZM20.025 38.375C20.325 38.375 20.7 38.375 21 38.375C21.3 38.375 21.6 38.375 21.975 38.375L21 40.025L20.025 38.375ZM36.825 43.625H22.95L21.75 41.525L23.85 38.075C25.725 37.7 27.225 36.875 28.425 35.9C32.025 37.475 34.95 40.175 36.825 43.625ZM31.5 27.8C31.35 28.625 29.775 36.875 21 36.875C12.3 36.875 10.65 28.625 10.5 27.8V24.8001C13.275 24.5 14.775 22.775 15.375 21.9501C16.05 22.1 16.725 22.25 17.475 22.4C17.85 23 20.1 26 23.85 26.675C24.375 26.75 24.9 26.825 25.425 26.825H25.5V27.2C25.5 27.65 25.8 27.95 26.25 27.95C26.7 27.95 27 27.65 27 27.2V26.675C28.5 26.45 30 25.775 31.5 24.875V27.8ZM31.5 23C28.95 24.875 26.4 25.625 24.15 25.175C22.05 24.8 20.475 23.525 19.575 22.55C20.025 22.55 20.55 22.625 21 22.625C26.1 22.625 29.4 21.275 31.5 19.85V23ZM35.25 23.375C35.25 24.8 34.275 25.925 33 26.3V20.525C34.275 20.8251 35.25 21.95 35.25 23.375ZM33 16.4C32.4 17.225 29.325 21.125 21 21.125C12.675 21.125 9.6 17.225 9 16.4V12.95L20.775 17.3C20.85 17.3 20.925 17.375 21 17.375C21.075 17.375 21.15 17.375 21.225 17.3L33 12.95V16.4ZM21 15.8L2.925 9.12505L21 2.45005L39.075 9.12505L21 15.8Z" fill="#333333"/>
</svg>
